HIERARCHY
ROOT Hips
{
	OFFSET 0.0000 0.0000 0.0000
	CHANNELS 6 Xposition Yposition Zposition Zrotation Xrotation Yrotation
	JOINT Spine1
	{
		OFFSET -0.0137 5.0038 -0.0537
		CHANNELS 3 Zrotation Xrotation Yrotation
		JOINT Spine2
		{
			OFFSET -0.0000 7.1253 -0.0298
			CHANNELS 3 Zrotation Xrotation Yrotation
			JOINT Chest
			{
				OFFSET -0.0000 7.5501 -0.8160
				CHANNELS 3 Zrotation Xrotation Yrotation
				JOINT Neck1
				{
					OFFSET -0.1817 26.3113 -0.5533
					CHANNELS 3 Zrotation Xrotation Yrotation
					JOINT Neck2
					{
						OFFSET -0.0000 7.7094 2.3026
						CHANNELS 3 Zrotation Xrotation Yrotation
						JOINT Head
						{
							OFFSET -0.0000 6.1289 1.9537
							CHANNELS 3 Zrotation Xrotation Yrotation
							JOINT Jaw
							{
								OFFSET 0.0026 0.4756 3.0949
								CHANNELS 3 Zrotation Xrotation Yrotation
								End Site
								{
									OFFSET 0.0 1.0 0.0
								}
							}
							JOINT LeftEye
							{
								OFFSET 3.2064 5.3802 7.5869
								CHANNELS 3 Zrotation Xrotation Yrotation
								End Site
								{
									OFFSET 0.0 1.0 0.0
								}
							}
							JOINT RightEye
							{
								OFFSET -3.2224 5.3619 7.5582
								CHANNELS 3 Zrotation Xrotation Yrotation
								End Site
								{
									OFFSET 0.0 1.0 0.0
								}
							}
						}
					}
				}
				JOINT LeftShoulder
				{
					OFFSET 1.6217 23.2372 5.1134
					CHANNELS 3 Zrotation Xrotation Yrotation
					JOINT LeftArm
					{
						OFFSET 14.9198 0.0000 -5.5023
						CHANNELS 3 Zrotation Xrotation Yrotation
						JOINT LeftForeArm
						{
							OFFSET 28.7393 0.0000 -0.0026
							CHANNELS 3 Zrotation Xrotation Yrotation
							JOINT LeftHand
							{
								OFFSET 27.0940 -0.0000 0.0026
								CHANNELS 3 Zrotation Xrotation Yrotation
								JOINT LeftHandThumbEnd
								{
									OFFSET 12.2686 -3.2202 4.8331
									CHANNELS 3 Zrotation Xrotation Yrotation
									End Site
									{
										OFFSET 0.0 1.0 0.0
									}
								}
								JOINT LeftHandMiddleEnd
								{
									OFFSET 19.0120 -0.3129 -0.0340
									CHANNELS 3 Zrotation Xrotation Yrotation
									End Site
									{
										OFFSET 0.0 1.0 0.0
									}
								}
							}
						}
					}
				}
				JOINT RightShoulder
				{
					OFFSET -1.3801 23.1803 5.2142
					CHANNELS 3 Zrotation Xrotation Yrotation
					JOINT RightArm
					{
						OFFSET -15.0372 0.0000 -5.5456
						CHANNELS 3 Zrotation Xrotation Yrotation
						JOINT RightForeArm
						{
							OFFSET -28.7366 0.0000 -0.0026
							CHANNELS 3 Zrotation Xrotation Yrotation
							JOINT RightHand
							{
								OFFSET -27.1336 -0.0000 0.0026
								CHANNELS 3 Zrotation Xrotation Yrotation
								JOINT RightHandThumbEnd
								{
									OFFSET -12.2642 -3.2115 4.8040
									CHANNELS 3 Zrotation Xrotation Yrotation
									End Site
									{
										OFFSET 0.0 1.0 0.0
									}
								}
								JOINT RightHandMiddleEnd
								{
									OFFSET -19.0006 -0.3066 -0.0316
									CHANNELS 3 Zrotation Xrotation Yrotation
									End Site
									{
										OFFSET 0.0 1.0 0.0
									}
								}
							}
						}
					}
				}
			}
		}
	}
	JOINT LeftLeg
	{
		OFFSET 10.0432 -8.4345 2.5957
		CHANNELS 3 Zrotation Xrotation Yrotation
		JOINT LeftShin
		{
			OFFSET -0.0000 -43.2218 -0.8029
			CHANNELS 3 Zrotation Xrotation Yrotation
			JOINT LeftFoot
			{
				OFFSET 0.0000 -42.1551 -3.4815
				CHANNELS 3 Zrotation Xrotation Yrotation
				JOINT LeftToeBase
				{
					OFFSET 0.0000 -5.0595 13.2315
					CHANNELS 3 Zrotation Xrotation Yrotation
					End Site
					{
						OFFSET 0.0 1.0 0.0
					}
				}
			}
		}
	}
	JOINT RightLeg
	{
		OFFSET -10.0473 -8.2953 2.6203
		CHANNELS 3 Zrotation Xrotation Yrotation
		JOINT RightShin
		{
			OFFSET 0.0000 -43.3622 -0.8056
			CHANNELS 3 Zrotation Xrotation Yrotation
			JOINT RightFoot
			{
				OFFSET 0.0000 -42.1174 -3.4784
				CHANNELS 3 Zrotation Xrotation Yrotation
				JOINT RightToeBase
				{
					OFFSET -0.0000 -5.0796 13.2842
					CHANNELS 3 Zrotation Xrotation Yrotation
					End Site
					{
						OFFSET 0.0 1.0 0.0
					}
				}
			}
		}
	}
}
MOTION
Frames: 15
Frame Time: 0.033333
-4.7212 95.9929 -2.2206 2.7260 -1.2791 0.0962 2.7868 6.6082 -0.8388 0.8565 -2.7018 -1.2739 4.5202 23.3354 -2.5789 -7.4511 9.1697 5.3721 -0.9578 -3.6421 -1.2453 -3.4390 -16.1567 0.2837 0.0298 0.0149 0.0482 0.7317 -10.4112 -3.7906 -0.6767 -10.4308 3.8854 -13.6903 24.7549 -7.2326 -12.4940 -5.3162 -55.1890 0.3176 1.5046 -109.9047 8.4590 34.3064 19.9274 -15.4254 11.3512 15.5994 -60.9474 2.0213 2.0468 3.1625 15.4397 19.4518 34.0771 -20.9988 12.9753 0.4485 0.3206 92.7501 -8.4542 -67.8873 23.9899 16.0321 7.2108 -15.5181 49.2254 -3.2817 -4.6656 7.2490 -18.6822 12.6400 -0.2221 25.3737 -0.2832 -9.5189 -7.3220 -17.4646 1.6807 -1.2968 -1.6706 -7.4489 -20.7378 -15.8545 0.3112 35.5160 0.2504 4.0494 -14.9242 9.4276 -1.4105 0.1321 1.0205
-4.5821 95.8110 -2.3411 2.7463 -1.4518 0.3638 2.7420 6.6914 -0.8760 0.8802 -2.7294 -1.3381 4.6696 23.4463 -2.5865 -7.0863 8.9649 5.2416 -1.0140 -3.6427 -1.1810 -3.5822 -16.0107 0.2932 0.0203 0.0184 0.0613 0.7261 -10.4181 -3.7842 -0.6901 -10.4363 3.9072 -13.5845 24.6814 -7.6031 -11.3403 -5.6315 -56.7723 0.0437 1.4678 -108.8192 8.1697 34.5408 19.3962 -15.3780 11.2904 15.5798 -60.9439 1.9482 1.9994 3.3209 15.4205 19.8607 33.8362 -21.5248 14.3936 0.6268 0.3976 91.0730 -7.3493 -68.2231 23.2937 16.1217 7.2079 -15.6260 49.1653 -3.3297 -4.6828 7.1897 -19.0759 12.6353 -0.2483 26.1472 -0.2970 -9.4324 -7.7615 -17.7334 1.6794 -1.3256 -1.7208 -7.5906 -20.9389 -15.8341 0.3205 36.0837 0.2671 4.1501 -15.1245 9.1484 -1.4196 0.2256 0.9926
-4.3805 95.6015 -2.4862 2.7271 -1.6650 0.5658 2.6682 6.7392 -0.8767 0.8856 -2.7303 -1.4070 4.8405 23.6454 -2.5751 -6.5745 8.6983 5.0806 -1.0402 -3.6594 -1.1296 -3.8394 -15.8489 0.4827 0.0166 0.0285 0.0684 0.7245 -10.4432 -3.7831 -0.6953 -10.4569 3.9206 -13.3761 24.6259 -8.0216 -9.9279 -5.8500 -58.4261 -0.0053 1.4556 -107.7721 7.6653 35.0609 18.6939 -15.4468 11.1935 15.5065 -60.9641 1.9049 1.8639 3.4647 15.3422 20.3462 33.5216 -21.7214 16.0003 0.7365 0.3994 89.2842 -6.6822 -69.6393 23.1352 16.1990 7.2070 -15.6922 49.0998 -3.4043 -4.6663 7.1442 -19.4525 12.6740 -0.2602 27.0289 -0.2961 -9.2343 -8.2069 -17.9504 1.6806 -1.3697 -1.7518 -7.7681 -21.1244 -15.8738 0.3270 36.6677 0.2824 4.2506 -15.3164 9.0538 -1.4206 0.3370 0.9805
-4.0987 95.4539 -2.6299 2.6357 -1.8798 0.5812 2.6040 6.7482 -0.8624 0.8937 -2.7259 -1.4574 5.0175 23.8904 -2.5208 -6.1165 8.4711 4.9135 -1.0264 -3.6682 -1.0183 -4.0761 -15.7644 0.7581 0.0167 0.0305 0.0684 0.7200 -10.4602 -3.7876 -0.6904 -10.4705 3.9244 -13.1580 24.6168 -8.3871 -8.4304 -6.0760 -59.9166 0.0873 1.4513 -106.8093 7.1526 35.4364 17.8889 -15.5539 11.1249 15.4501 -61.0007 1.8781 1.7555 3.6122 15.3157 20.8250 33.1097 -21.4822 17.7036 0.7468 0.4532 87.7240 -5.7849 -71.4414 22.8073 16.1946 7.2062 -15.7361 49.0418 -3.4907 -4.6554 7.1332 -19.6778 12.7364 -0.2586 27.7298 -0.2720 -9.0263 -8.5472 -18.0480 1.6834 -1.4144 -1.7553 -7.9163 -21.1750 -15.9025 0.3278 36.9333 0.2922 4.3890 -15.3576 9.1073 -1.4164 0.3718 0.9721
-3.7336 95.4029 -2.7537 2.5132 -2.0325 0.4068 2.5470 6.7167 -0.8435 0.8925 -2.7384 -1.4720 5.1448 24.1333 -2.4664 -5.7773 8.2525 4.7939 -0.9745 -3.6675 -0.8777 -4.2129 -15.7305 1.0172 0.0135 0.0248 0.0848 0.7095 -10.4821 -3.7717 -0.6856 -10.4868 3.9406 -12.9479 24.5585 -8.6685 -6.9445 -6.3486 -61.2312 0.1887 1.4682 -105.8841 6.8703 35.4750 17.1286 -15.6378 11.0919 15.3934 -61.0270 1.8978 1.6503 3.8332 15.2771 21.2563 32.7215 -20.8274 19.4167 0.6511 0.5181 86.5291 -4.5741 -73.3483 22.1967 16.1423 7.2850 -15.8138 49.0217 -3.5512 -4.6499 7.0708 -19.7447 12.7686 -0.2508 28.1568 -0.2563 -8.7962 -8.7513 -17.9290 1.6834 -1.4259 -1.7523 -8.0478 -21.1407 -15.8234 0.3304 36.8444 0.3286 4.6441 -15.2146 9.1454 -1.4117 0.3894 0.9597
-3.2660 95.4323 -2.8258 2.4104 -2.1139 0.0638 2.4578 6.6546 -0.8113 0.8795 -2.7606 -1.4803 5.1950 24.3271 -2.4443 -5.5342 7.9943 4.7515 -0.9255 -3.6631 -0.7065 -4.2985 -15.6044 1.2734 0.0119 0.0168 0.0959 0.7026 -10.4872 -3.7593 -0.6815 -10.4894 3.9508 -12.7706 24.4553 -8.8503 -5.5928 -6.7255 -62.3913 0.2110 1.5302 -104.9771 6.8314 35.1965 16.4901 -15.6789 11.0762 15.3570 -61.0073 1.9285 1.5667 4.1236 15.2266 21.6892 32.6497 -20.0140 20.7715 0.6147 0.5786 85.7576 -3.5567 -74.8009 21.7402 16.0680 7.4012 -15.8166 49.0144 -3.5538 -4.6275 6.9105 -19.6428 12.7897 -0.2404 28.2891 -0.2324 -8.5342 -8.8542 -17.6115 1.6866 -1.3849 -1.7589 -8.2442 -21.0259 -15.5822 0.3425 36.4321 0.3646 4.9501 -14.9048 9.2098 -1.4106 0.3819 0.9474
-2.6903 95.5159 -2.8596 2.3039 -2.1425 -0.3651 2.3342 6.6023 -0.7698 0.8569 -2.7839 -1.4889 5.1727 24.4414 -2.4266 -5.3303 7.7153 4.7154 -0.8794 -3.6730 -0.4934 -4.4010 -15.4721 1.5776 0.0112 0.0108 0.1019 0.7009 -10.4998 -3.7537 -0.6809 -10.5011 3.9566 -12.5421 24.3785 -8.9661 -4.3054 -7.0783 -63.5366 0.2331 1.5591 -104.0158 7.0057 34.9563 15.9419 -15.6930 11.0726 15.3176 -60.9450 1.9501 1.4831 4.4014 15.1890 22.0223 33.0400 -19.2150 21.6864 0.6533 0.5339 85.3877 -2.8789 -75.9234 21.5398 16.0088 7.5479 -15.7930 49.0306 -3.5193 -4.6104 6.6841 -19.4999 12.8053 -0.2411 28.3403 -0.2142 -8.2544 -8.9357 -17.1697 1.6881 -1.3252 -1.7612 -8.4806 -20.8946 -15.2344 0.3482 35.8661 0.3889 5.3210 -14.5182 9.2989 -1.4082 0.3291 0.9263
-2.0354 95.6090 -2.8966 2.1912 -2.1383 -0.7971 2.1753 6.5443 -0.7422 0.8238 -2.7905 -1.4707 5.0731 24.4425 -2.4143 -5.0933 7.3922 4.6724 -0.8376 -3.6782 -0.2881 -4.5155 -15.3191 1.9172 0.0121 0.0105 0.0952 0.7052 -10.4978 -3.7638 -0.6831 -10.5007 3.9523 -12.2660 24.2592 -9.0627 -3.1807 -7.3169 -64.6605 0.1712 1.6479 -103.0120 7.2915 34.8053 15.4023 -15.6907 11.0888 15.2790 -60.8324 1.9776 1.4296 4.6643 15.1822 22.1752 33.9397 -18.4931 22.1842 0.6868 0.5180 85.3434 -2.5875 -77.1064 21.5842 15.9264 7.7039 -15.8116 49.0620 -3.4732 -4.5967 6.4106 -19.3290 12.8126 -0.2342 28.3326 -0.1874 -7.9879 -9.0308 -16.7151 1.6907 -1.2319 -1.7630 -8.7666 -20.7318 -14.9079 0.3565 35.1697 0.4226 5.7350 -14.0859 9.3911 -1.4081 0.2428 0.9080
-1.3248 95.7053 -2.9058 2.0958 -2.1136 -1.1846 1.9646 6.5099 -0.7035 0.7701 -2.8186 -1.4420 4.8937 24.4223 -2.4318 -4.8257 7.0258 4.6401 -0.7897 -3.6725 -0.1044 -4.5610 -15.1546 2.2018 0.0122 0.0180 0.0902 0.7122 -10.4951 -3.7705 -0.6899 -10.4974 3.9488 -11.8993 24.0822 -9.1511 -2.1142 -7.4530 -65.7444 0.0415 1.6683 -101.9923 7.6461 34.7929 14.8131 -15.6755 11.1207 15.2416 -60.7416 1.9823 1.3912 4.8898 15.1815 22.1695 35.3294 -17.9811 22.1690 0.7436 0.4296 85.6149 -3.0537 -78.2423 22.1824 15.7991 7.8419 -15.9074 49.0904 -3.4387 -4.6057 6.0767 -19.2043 12.8183 -0.2324 28.3691 -0.1746 -7.6978 -9.1096 -16.3370 1.6935 -1.1232 -1.7704 -9.0921 -20.6003 -14.6489 0.3550 34.4868 0.4489 6.2146 -13.6877 9.5007 -1.4095 0.1481 0.8847
-0.5875 95.7917 -2.9052 1.9992 -2.0609 -1.5340 1.7232 6.4736 -0.6781 0.6933 -2.8413 -1.4022 4.6419 24.3666 -2.4706 -4.5595 6.6429 4.6027 -0.7494 -3.6603 0.0741 -4.5113 -14.9940 2.4145 0.0156 0.0225 0.0772 0.7211 -10.4886 -3.7841 -0.6922 -10.4904 3.9349 -11.5209 23.8672 -9.2410 -1.1664 -7.5233 -66.7402 -0.1381 1.7331 -100.9477 7.9523 34.8334 14.1922 -15.6850 11.1453 15.2269 -60.6526 1.9691 1.4015 5.0844 15.1904 22.0211 37.1814 -17.6028 21.7359 0.7362 0.4041 86.0623 -4.7985 -79.2480 23.8792 15.6794 7.9911 -16.0034 49.2477 -3.4168 -4.6239 5.7163 -19.0969 12.8410 -0.2185 28.3772 -0.1525 -7.3754 -9.1819 -16.0488 1.6952 -1.0429 -1.7797 -9.4194 -20.4782 -14.4488 0.3558 33.7793 0.4783 6.7111 -13.2774 9.5798 -1.4111 0.0346 0.8696
0.1961 95.8940 -2.8855 1.9244 -1.9975 -1.8475 1.4363 6.4630 -0.6316 0.6005 -2.8767 -1.3999 4.2826 24.3124 -2.5017 -4.2881 6.2599 4.5882 -0.7341 -3.6543 0.2535 -4.3508 -14.8624 2.5254 0.0185 0.0198 0.0699 0.7295 -10.4780 -3.7878 -0.6950 -10.4809 3.9249 -11.1042 23.6557 -9.3103 -0.3404 -7.6199 -67.6685 -0.3244 1.7510 -99.8361 8.2812 34.8448 13.5965 -15.7049 11.1750 15.1993 -60.6031 1.9423 1.3936 5.2035 15.2770 21.7367 39.6366 -17.4666 20.7671 0.7420 0.3914 86.6281 -8.9579 -80.2287 27.8422 15.5155 8.1502 -16.0276 49.4752 -3.3697 -4.6272 5.3135 -19.0010 12.9153 -0.2165 28.3918 -0.1418 -6.9807 -9.2412 -15.7937 1.6944 -0.9505 -1.7964 -9.7766 -20.3494 -14.2707 0.3419 33.0479 0.4998 7.2232 -12.8515 9.6631 -1.4135 -0.0772 0.8650
0.9420 95.9706 -2.8889 1.8597 -1.9029 -2.1159 1.1198 6.4632 -0.6180 0.4986 -2.8973 -1.3593 3.8400 24.2395 -2.5470 -4.0196 5.9068 4.5709 -0.7167 -3.6473 0.4032 -4.1108 -14.7500 2.6034 0.0214 0.0166 0.0637 0.7357 -10.4725 -3.7948 -0.6956 -10.4787 3.9180 -10.6842 23.4665 -9.3713 0.2778 -7.6927 -68.5062 -0.3785 1.7515 -98.7415 8.7122 34.8844 13.1926 -15.7851 11.2186 15.2062 -60.6683 1.9272 1.4190 5.2106 15.3906 21.3035 42.6684 -17.4560 19.3285 0.7003 0.4371 87.2227 -16.7306 -81.3071 35.2710 15.3667 8.3260 -15.9776 49.6828 -3.3088 -4.6357 4.9043 -18.9480 12.9754 -0.2064 28.4165 -0.1290 -6.5937 -9.2857 -15.6138 1.6943 -0.8964 -1.8074 -10.1196 -20.2439 -14.1554 0.3297 32.3118 0.5093 7.7357 -12.4271 9.7648 -1.4153 -0.2025 0.8660
1.6576 96.0519 -2.8356 1.8288 -1.8111 -2.3820 0.7744 6.5007 -0.5952 0.3966 -2.9067 -1.3227 3.3041 24.1631 -2.6103 -3.7179 5.6312 4.5682 -0.7198 -3.6465 0.5772 -3.7842 -14.6545 2.5904 0.0231 0.0113 0.0590 0.7412 -10.4737 -3.8027 -0.6983 -10.4867 3.9167 -10.2703 23.2530 -9.3678 0.5774 -7.9394 -69.2641 -0.4669 1.6716 -97.6647 9.2192 34.7951 12.9343 -15.8712 11.2500 15.2112 -60.7802 1.8937 1.4406 5.0591 15.5702 20.7970 46.1791 -17.4802 17.4422 0.6274 0.4611 87.8818 -31.2154 -82.5262 49.2924 15.2229 8.4902 -15.8591 49.8271 -3.2426 -4.6297 4.4727 -18.8945 13.0574 -0.1957 28.4545 -0.1203 -6.2001 -9.3277 -15.4229 1.6941 -0.8611 -1.8202 -10.4842 -20.1816 -14.0969 0.3166 31.6425 0.5262 8.2385 -12.0345 9.9817 -1.4175 -0.3235 0.8747
2.2932 96.1015 -2.7901 1.8284 -1.7407 -2.6484 0.4244 6.5466 -0.5667 0.2875 -2.9166 -1.2895 2.7002 24.1369 -2.6782 -3.4129 5.4792 4.5578 -0.7256 -3.6512 0.7760 -3.3491 -14.5371 2.5267 0.0243 0.0053 0.0522 0.7440 -10.4783 -3.8109 -0.6995 -10.4945 3.9129 -9.9715 23.0225 -9.3391 0.6048 -8.2898 -69.9071 -0.5387 1.5992 -96.6803 9.6554 34.4586 12.6751 -15.9661 11.2628 15.2371 -60.8610 1.8560 1.5032 4.7723 15.7932 20.2865 49.8273 -17.4014 15.2329 0.5257 0.4017 88.5721 -53.3533 -83.2667 71.0956 15.1121 8.6082 -15.7286 49.8427 -3.1656 -4.6075 4.0548 -18.8279 13.1236 -0.1892 28.5226 -0.1150 -5.8085 -9.3870 -15.2022 1.6945 -0.8335 -1.8400 -10.8596 -20.1471 -14.0586 0.3089 31.0669 0.5431 8.6793 -11.6990 10.2310 -1.4192 -0.4525 0.8862
2.8452 96.1420 -2.6887 1.8580 -1.6915 -2.9091 0.0911 6.5689 -0.5530 0.1767 -2.9198 -1.2288 2.0604 24.1453 -2.7693 -3.1372 5.4634 4.5179 -0.7258 -3.6532 0.9869 -2.8348 -14.3432 2.4519 0.0249 -0.0004 0.0431 0.7465 -10.4786 -3.8211 -0.7015 -10.4970 3.9066 -9.8645 22.7593 -9.2761 0.3499 -8.6616 -70.4198 -0.6310 1.5523 -95.8221 9.9952 33.8205 12.4716 -16.0384 11.2592 15.2585 -60.8707 1.8200 1.5524 4.4183 16.0293 19.8102 53.1580 -17.0679 12.9318 0.4044 0.2774 89.3195 -74.3400 -82.9884 91.9075 15.0255 8.6425 -15.6158 49.6908 -3.1358 -4.6053 3.6455 -18.7250 13.2087 -0.1812 28.5664 -0.1016 -5.4201 -9.4121 -15.0027 1.6944 -0.7894 -1.8559 -11.2456 -20.1023 -14.0417 0.3184 30.5421 0.5826 9.0550 -11.3816 10.4587 -1.4196 -0.5716 0.9032
